<svg xmlns="http://www.w3.org/2000/svg" width="24" height="24" viewBox="0 0 24 24">
    <path fill="#FFF" fill-rule="nonzero" d="M23.829 4.604a.805.805 0 0 0-.598-.309l-18.944-.86a.759.759 0 0 0-.045-.002 1.67 1.67 0 0 0-.67-.901L1.253.985A.806.806 0 0 0 .36 2.326l2.32 1.547a.056.056 0 0 1 .022.03l2.955 10.343c.093.323.244.613.439.863L5.014 17.27a1.673 1.673 0 0 0 .486 2.076 2.53 2.53 0 0 0 2.195 3.78 2.53 2.53 0 0 0 2.355-3.444h7.345a2.53 2.53 0 0 0 2.355 3.444 2.53 2.53 0 0 0 2.263-3.653.806.806 0 0 0-.54-1.402H6.503c-.011 0-.03 0-.047-.026-.016-.026-.007-.044-.002-.054L7.45 16a2.529 2.529 0 0 0 .931.062l11.32-1.331a3.38 3.38 0 0 0 2.928-2.702l1.354-6.77a.806.806 0 0 0-.155-.655zm-4.08 15.08a.918.918 0 0 1 0 1.833.918.918 0 0 1 0-1.833zm-12.055 0a.918.918 0 0 1 0 1.833.918.918 0 0 1 0-1.833zM5.72 8.6l-1.01-3.534 3.221.147L8.49 8.6h-2.77zm2.475 5.862a.912.912 0 0 1-.988-.658L6.179 10.21h2.575l.677 4.106-1.237.145zm4.723-.555l-1.884.221-.645-3.916h2.529v3.695zm0-5.307h-2.795l-.546-3.312 3.34.152V8.6zm4.08 4.827l-2.47.29v-3.506h2.76l-.29 3.216zm.437-4.827h-2.906V5.513l3.172.144-.266 2.943zm3.616 3.114a1.773 1.773 0 0 1-1.535 1.416l-.883.104.274-3.022h2.444l-.3 1.502zm.623-3.114h-2.621l.26-2.87 2.908.132-.547 2.738z"/>
</svg>
