<svg xmlns="http://www.w3.org/2000/svg" width="24" height="24" viewBox="0 0 24 24">
    <g fill="none" fill-rule="evenodd">
        <path fill="#FF6536" d="M2.338 11.705s.948 1.393 2.936 2.572c0 0-1.44-12.164 7.938-14.277-2.402 8.818 3.056 11.305 5.046 6.646 3.323 4.437.8 8.308.8 8.308 1.363.196 2.507-1.293 2.507-1.293.01.184.016.369.016.554 0 5.404-4.38 9.785-9.784 9.785-5.404 0-9.785-4.38-9.785-9.785 0-.868.114-1.709.326-2.51z"/>
        <path fill="#FBBF00" d="M7.506 19.709a4.291 4.291 0 1 0 7.157-3.194c-1.66 2.254-4.024-1.165-2.181-3.662 0 0-4.976.624-4.976 6.856z"/>
    </g>
</svg>
