<svg xmlns="http://www.w3.org/2000/svg" width="24" height="24" viewBox="0 0 24 24">
    <path fill="#FF532D" fill-rule="nonzero" d="M2 0h3a2 2 0 0 1 2 2v2a2 2 0 0 1-2 2H2a2 2 0 0 1-2-2V2a2 2 0 0 1 2-2zm0 9h3a2 2 0 0 1 2 2v2a2 2 0 0 1-2 2H2a2 2 0 0 1-2-2v-2a2 2 0 0 1 2-2zm0 9h3a2 2 0 0 1 2 2v2a2 2 0 0 1-2 2H2a2 2 0 0 1-2-2v-2a2 2 0 0 1 2-2zm9-18h11a2 2 0 0 1 2 2v2a2 2 0 0 1-2 2H11a2 2 0 0 1-2-2V2a2 2 0 0 1 2-2zm0 9h11a2 2 0 0 1 2 2v2a2 2 0 0 1-2 2H11a2 2 0 0 1-2-2v-2a2 2 0 0 1 2-2zm0 9h11a2 2 0 0 1 2 2v2a2 2 0 0 1-2 2H11a2 2 0 0 1-2-2v-2a2 2 0 0 1 2-2z"/>
</svg>
