<svg xmlns="http://www.w3.org/2000/svg" width="24" height="24" viewBox="0 0 24 24">
    <g fill="none" fill-rule="evenodd">
        <path fill="#F08F84" d="M24 6.138A4.138 4.138 0 0 0 19.862 2H8.276a8.276 8.276 0 0 0-8.263 8.722c.021.403-.038 2.578 0 3.31a8.276 8.276 0 0 0 16.204 1.896 3.34 3.34 0 0 1 3.225-2.342h.42A4.138 4.138 0 0 0 24 9.448v-3.31z"/>
        <path fill="#E04638" d="M8.276 16.897a6.675 6.675 0 0 1-6.612-6.261 6.62 6.62 0 0 1 6.612-6.98h11.586a2.483 2.483 0 1 1 0 4.965h-.421a5.01 5.01 0 0 0-4.813 3.53 6.657 6.657 0 0 1-6.352 4.746z"/>
        <path fill="#FFF" d="M10.345 10.276a2.069 2.069 0 1 1-4.138 0 2.069 2.069 0 0 1 4.138 0z"/>
    </g>
</svg>
