<svg xmlns="http://www.w3.org/2000/svg" width="24" height="24" viewBox="0 0 24 24">
    <g fill="none" fill-rule="evenodd">
        <path fill="#64C37D" d="M19.063 12.527c-2.845 1.422-4.438 2.913-5.304 4.772.234-2.776.812-5.146 2.241-6.099H8c1.429.953 2.007 3.323 2.241 6.099-.866-1.86-2.459-3.35-5.304-4.772l-1.074 2.146C8.086 16.785 8.8 18.654 8.8 23.2h6.4c0-4.546.714-6.415 4.937-8.527l-1.074-2.146z"/>
        <path fill="#91DC5A" d="M22.14 9.42a4 4 0 0 0-4.196-5.394 6.4 6.4 0 0 0-11.888 0A4 4 0 0 0 1.86 9.42a4 4 0 1 0 5.653 5.292 4.009 4.009 0 0 0 1.94-2.44c.781.339 1.642.528 2.547.528.905 0 1.766-.189 2.546-.528a4.009 4.009 0 0 0 1.94 2.441 4 4 0 1 0 5.653-5.292z"/>
    </g>
</svg>
