<svg xmlns="http://www.w3.org/2000/svg" width="196" height="48" viewBox="0 0 196 48">
    <path fill="#121212" fill-rule="nonzero" d="M38.204.781a2.79 2.79 0 0 1 .864 2.029v44.089c0 .734-.849 1.187-1.457.772l-4.381-2.992v.399a2.727 2.727 0 0 1-2.72 2.726c-1.5 0-2.72-1.223-2.72-2.726v-4.114l-.105-.072-6.384-4.36-.772-.527v1.825a2.726 2.726 0 0 1-2.72 2.726c-1.5 0-2.72-1.223-2.72-2.726v-5.54l-2.441-1.667v10.719a2.726 2.726 0 0 1-2.72 2.726c-1.5 0-2.72-1.223-2.72-2.726V36.33a.933.933 0 1 1 1.864 0v5.012c0 .473.384.858.856.858a.858.858 0 0 0 .856-.858V28.856a.93.93 0 1 1 1.457-.772l4.304 2.94a.936.936 0 0 1 .407.772v6.034c0 .473.385.858.856.858a.857.857 0 0 0 .856-.858v-3.592a.93.93 0 1 1 1.457-.772l1.262.861a5.092 5.092 0 0 1 2.464-2.275 5.069 5.069 0 0 1 6.658 2.658 5.107 5.107 0 0 1-.911 5.43c.039.104.06.215.06.33v4.608c0 .473.384.858.856.858a.858.858 0 0 0 .856-.858v-2.166a.93.93 0 1 1 1.457-.772l4.38 2.992V41.36a5.075 5.075 0 0 1-2.132-1.416 5.123 5.123 0 0 1-1.055-4.912 5.098 5.098 0 0 1 3.188-3.274V8.273a38.42 38.42 0 0 0-3.797.28 5.056 5.056 0 0 1 .294 4.373 5.042 5.042 0 0 1-2.705 2.786 5.053 5.053 0 0 1-2.002.416c-.635 0-1.27-.12-1.877-.363a5.038 5.038 0 0 1-2.78-2.711 5.076 5.076 0 0 1-.412-2.072 37.09 37.09 0 0 0-4.434 2.099 39.726 39.726 0 0 0-3.677 2.317 39.782 39.782 0 0 0-3.273 2.608 37.15 37.15 0 0 0-3.084 3.071 39.272 39.272 0 0 0-2.647 3.298l1.855 1.267a.936.936 0 0 1 .407.772v2.443a.933.933 0 1 1-1.864 0v-1.95l-2.229-1.521-3.753-2.564a2.788 2.788 0 0 1-1.187-1.86 2.788 2.788 0 0 1 .52-2.143A47.2 47.2 0 0 1 16.232 5.396 47.155 47.155 0 0 1 36.146.003a2.775 2.775 0 0 1 2.058.778zm-15.27 34.605l1.77 1.209 3.448 2.355a3.228 3.228 0 0 0 .64-3.502 3.204 3.204 0 0 0-4.208-1.68 3.175 3.175 0 0 0-1.65 1.618zM1.878 20.656a.933.933 0 0 0 .397.622l2.993 2.044a39.92 39.92 0 0 1 3.415-4.163 40.953 40.953 0 0 1 3.541-3.346 41.877 41.877 0 0 1 3.88-2.873c1.37-.897 2.8-1.714 4.272-2.428a41.776 41.776 0 0 1 4.467-1.876 40.17 40.17 0 0 1 6.642-1.697c.419-.069.841-.128 1.262-.185a40.374 40.374 0 0 1 4.456-.35V2.808c0-.258-.102-.5-.289-.679a.929.929 0 0 0-.689-.26 45.277 45.277 0 0 0-19.124 5.178 45.326 45.326 0 0 0-15.05 12.89.935.935 0 0 0-.173.718zm30.09-8.421a3.196 3.196 0 0 0-.033-2.457 3.16 3.16 0 0 0-.592-.913 37.265 37.265 0 0 0-5.456 1.398 3.193 3.193 0 0 0 .163 2.052 3.185 3.185 0 0 0 1.757 1.714 3.176 3.176 0 0 0 2.452-.033 3.187 3.187 0 0 0 1.71-1.761zm3.94 25.594a3.2 3.2 0 0 0 1.296 1.485v-5.509a3.185 3.185 0 0 0-1.33 1.567 3.196 3.196 0 0 0 .033 2.457zM15.395 27.616a5.039 5.039 0 0 1-2.78-2.71 5.056 5.056 0 0 1-.052-3.887 5.04 5.04 0 0 1 2.704-2.786 5.022 5.022 0 0 1 3.879-.053 5.038 5.038 0 0 1 2.78 2.711c1.103 2.572-.086 5.566-2.653 6.672a5.046 5.046 0 0 1-2.002.416c-.634 0-1.27-.12-1.876-.363zm-1.1-5.906a3.194 3.194 0 0 0 .033 2.457 3.186 3.186 0 0 0 1.757 1.713 3.176 3.176 0 0 0 2.451-.033 3.217 3.217 0 0 0 1.677-4.218 3.186 3.186 0 0 0-1.757-1.713 3.193 3.193 0 0 0-1.186-.23c-.43 0-.86.088-1.266.263a3.186 3.186 0 0 0-1.71 1.761zm14.907 7.82a5.038 5.038 0 0 1-2.78-2.71 5.057 5.057 0 0 1-.052-3.887 5.04 5.04 0 0 1 2.705-2.786 5.024 5.024 0 0 1 3.878-.053 5.04 5.04 0 0 1 2.78 2.711 5.055 5.055 0 0 1 .052 3.887 5.04 5.04 0 0 1-2.705 2.786 5.047 5.047 0 0 1-2.001.416c-.635 0-1.27-.12-1.877-.363zm-1.1-5.905a3.198 3.198 0 0 0 .033 2.456 3.186 3.186 0 0 0 1.757 1.714 3.176 3.176 0 0 0 2.452-.034 3.187 3.187 0 0 0 1.71-1.76 3.197 3.197 0 0 0-.034-2.457 3.187 3.187 0 0 0-1.757-1.714 3.192 3.192 0 0 0-2.451.034 3.185 3.185 0 0 0-1.71 1.76zM8.14 33.528a.942.942 0 0 1-.912-.745.94.94 0 0 1 .433-.99.942.942 0 0 1 1.047.059c.314.24.442.67.314 1.044a.942.942 0 0 1-.882.632zm48.022-7.688c2.798 0 4.99.67 6.577 2.009 1.587 1.34 2.38 3.18 2.38 5.524s-.793 4.18-2.38 5.509c-1.587 1.329-3.779 1.993-6.577 1.993h-5.888v6.937h-2.317V25.84h8.205zM56.1 38.835c2.171 0 3.83-.476 4.98-1.428 1.148-.953 1.722-2.297 1.722-4.034 0-1.778-.574-3.144-1.723-4.096-1.148-.952-2.808-1.428-4.98-1.428h-5.825v10.986H56.1zm13.153-7.533h2.224v16.51h-2.224v-16.51zm1.128-3.61c-.46 0-.846-.157-1.159-.47a1.543 1.543 0 0 1-.47-1.13c0-.42.157-.785.47-1.1.313-.313.7-.47 1.159-.47.46 0 .845.152 1.159.455.313.303.47.664.47 1.083 0 .46-.157.847-.47 1.161-.314.314-.7.471-1.16.471zM89.297 45.96v1.852H75.893v-1.476l10.366-13.151H76.081v-1.883h13.028v1.475L78.743 45.96h10.554zm16.004 0v1.852H91.897v-1.476l10.366-13.151H92.085v-1.883h13.028v1.475L94.747 45.96H105.3zm10.147-14.784c2.151 0 3.8.539 4.949 1.617 1.148 1.077 1.722 2.673 1.722 4.786v10.233h-2.13v-2.574c-.5.858-1.236 1.527-2.207 2.009-.971.481-2.125.722-3.461.722-1.837 0-3.299-.44-4.385-1.319-1.085-.879-1.628-2.04-1.628-3.484 0-1.402.506-2.532 1.519-3.39 1.012-.858 2.625-1.287 4.838-1.287h5.23v-1.004c0-1.423-.396-2.506-1.19-3.249-.793-.742-1.952-1.114-3.476-1.114a8.82 8.82 0 0 0-3.006.518c-.96.345-1.786.821-2.475 1.428l-1.002-1.663c.835-.712 1.838-1.261 3.007-1.648s2.4-.58 3.695-.58zm-.783 15.035c1.253 0 2.328-.288 3.226-.863.898-.576 1.566-1.408 2.005-2.496v-2.699h-5.168c-2.819 0-4.228.983-4.228 2.95 0 .963.365 1.722 1.096 2.276.731.555 1.754.832 3.07.832zM134.678 48c-1.629 0-3.19-.262-4.682-.785-1.493-.523-2.646-1.213-3.46-2.071l.907-1.79c.794.796 1.848 1.44 3.164 1.93 1.315.493 2.672.739 4.071.739 1.963 0 3.435-.361 4.416-1.083.981-.722 1.472-1.659 1.472-2.81 0-.878-.266-1.58-.799-2.103-.532-.523-1.185-.925-1.957-1.208-.773-.282-1.848-.591-3.226-.926-1.65-.418-2.965-.821-3.946-1.208a6.48 6.48 0 0 1-2.521-1.774c-.7-.795-1.05-1.873-1.05-3.233 0-1.109.293-2.118.878-3.029.584-.91 1.482-1.637 2.693-2.181s2.714-.816 4.51-.816c1.253 0 2.48.172 3.68.518 1.2.345 2.24.821 3.116 1.428l-.783 1.852a10.765 10.765 0 0 0-2.944-1.366 10.965 10.965 0 0 0-3.07-.455c-1.92 0-3.366.372-4.337 1.115-.97.742-1.456 1.7-1.456 2.871 0 .88.266 1.586.799 2.12.532.533 1.2.94 2.004 1.223.804.283 1.884.591 3.241.926 1.608.398 2.908.79 3.9 1.177a6.4 6.4 0 0 1 2.52 1.758c.69.785 1.034 1.847 1.034 3.186a5.419 5.419 0 0 1-.892 3.029c-.595.91-1.509 1.632-2.74 2.166-1.233.533-2.746.8-4.542.8zm12.747-23.478h2.223v23.29h-2.223v-23.29zm8.424 6.78h2.224v16.51h-2.224v-16.51zm1.128-3.61c-.46 0-.846-.157-1.159-.47a1.543 1.543 0 0 1-.47-1.13c0-.42.157-.785.47-1.1.313-.313.7-.47 1.159-.47.46 0 .846.152 1.159.455.313.303.47.664.47 1.083 0 .46-.157.847-.47 1.161-.313.314-.7.471-1.16.471zm14.125 20.277c-1.629 0-3.085-.356-4.37-1.068a7.716 7.716 0 0 1-3.022-2.997c-.73-1.287-1.096-2.736-1.096-4.347 0-1.612.366-3.055 1.096-4.332a7.746 7.746 0 0 1 3.023-2.982c1.284-.711 2.74-1.067 4.369-1.067 1.42 0 2.688.277 3.805.832 1.117.554 2 1.365 2.646 2.432l-1.66 1.13c-.542-.816-1.231-1.428-2.067-1.836a6.123 6.123 0 0 0-2.724-.612c-1.19 0-2.26.267-3.21.8a5.618 5.618 0 0 0-2.224 2.276c-.533.984-.799 2.103-.799 3.359 0 1.276.266 2.4.799 3.374a5.644 5.644 0 0 0 2.224 2.26c.95.533 2.02.8 3.21.8.981 0 1.89-.199 2.724-.596.836-.398 1.525-1.005 2.067-1.82l1.66 1.13a6.303 6.303 0 0 1-2.662 2.432c-1.127.554-2.39.832-3.79.832zm24.867-7.722h-13.78c.125 1.716.782 3.102 1.973 4.16 1.19 1.056 2.693 1.584 4.51 1.584 1.023 0 1.962-.183 2.818-.55a6.158 6.158 0 0 0 2.224-1.616l1.252 1.444a7.055 7.055 0 0 1-2.74 2.01c-1.096.46-2.302.69-3.617.69-1.691 0-3.19-.361-4.494-1.083a7.798 7.798 0 0 1-3.054-2.998c-.73-1.276-1.096-2.72-1.096-4.331 0-1.612.35-3.055 1.049-4.332.7-1.276 1.66-2.27 2.881-2.982 1.222-.711 2.595-1.067 4.119-1.067 1.524 0 2.891.356 4.102 1.067a7.558 7.558 0 0 1 2.85 2.966c.69 1.266 1.034 2.715 1.034 4.348l-.031.69zm-7.955-7.156c-1.587 0-2.918.507-3.993 1.522-1.076 1.015-1.686 2.338-1.833 3.97h11.682c-.146-1.632-.757-2.955-1.832-3.97-1.075-1.015-2.417-1.522-4.024-1.522z"/>
</svg>
